<?xml version="1.0" encoding="utf-8"?>
<!-- Generator: Adobe Illustrator 22.0.0, SVG Export Plug-In . SVG Version: 6.00 Build 0)  -->
<svg version="1.1" xmlns="http://www.w3.org/2000/svg" xmlns:xlink="http://www.w3.org/1999/xlink" x="0px" y="0px"
	 viewBox="0 0 256 256" style="enable-background:new 0 0 256 256;" xml:space="preserve">
<style type="text/css">
	.st0{display:none;}
	.st1{display:inline;}
	.st2{fill:none;stroke:#6B1D1D;stroke-width:0.5;stroke-miterlimit:10;}
	.st3{fill:#3A312A;}
	.st4{fill:#87796F;}
	.st5{fill:#D5DE58;}
	.st6{fill:#695B51;}
	.st7{fill:#FCE8CB;}
	.st8{fill:#F16C7A;}
	.st9{fill:#8AC6DD;}
	.st10{fill:#DECAAD;}
	.st11{fill:#D6DF58;}
	.st12{fill-rule:evenodd;clip-rule:evenodd;fill:#FCE8CB;}
	.st13{fill:#F5978A;}
	.st14{fill:#D7E057;}
	.st15{fill-rule:evenodd;clip-rule:evenodd;fill:#87796F;}
	.st16{fill:#6CA8BF;}
	.st17{fill:#B9C239;}
	.st18{fill:#D34E5C;}
	.st19{fill:#FAE6CA;}
	.st20{fill:#F8E4C8;}
	.st21{fill:#8AC5DC;}
	.st22{fill:#EF6D7A;}
	.st23{fill:#EB6E7A;}
	.st24{fill:#89C4DB;}
	.st25{fill-rule:evenodd;clip-rule:evenodd;fill:#F16C7A;}
	.st26{fill:#F7E3C7;}
	.st27{fill:#F6E2C6;}
	.st28{fill:#ED6E7A;}
	.st29{fill:#8AC3DA;}
	.st30{fill:#D5DC57;}
	.st31{fill-rule:evenodd;clip-rule:evenodd;fill:#D7E057;}
	.st32{fill-rule:evenodd;clip-rule:evenodd;fill:#F8E4C8;}
	.st33{fill:#D4DB56;}
	.st34{fill:#F59689;}
	.st35{fill:#DDC9AC;}
	.st36{fill:#D24E5C;}
	.st37{fill:#6A5C52;}
	.st38{fill:#6CA6BE;}
	.st39{fill:#B8C136;}
	.st40{fill-rule:evenodd;clip-rule:evenodd;fill:#FAE6CA;}
</style>
<g id="Layer_2" class="st0">
	<g class="st1">
		<g>
			<line class="st2" x1="0" y1="4.829" x2="256" y2="4.829"/>
			<line class="st2" x1="0" y1="16.56" x2="256" y2="16.56"/>
			<line class="st2" x1="0" y1="28.29" x2="256" y2="28.29"/>
			<line class="st2" x1="0" y1="40.021" x2="256" y2="40.021"/>
			<line class="st2" x1="0" y1="51.751" x2="256" y2="51.751"/>
			<line class="st2" x1="0" y1="63.482" x2="256" y2="63.482"/>
			<line class="st2" x1="0" y1="75.213" x2="256" y2="75.213"/>
			<line class="st2" x1="0" y1="86.943" x2="256" y2="86.943"/>
			<line class="st2" x1="0" y1="98.674" x2="256" y2="98.674"/>
			<line class="st2" x1="0" y1="110.404" x2="256" y2="110.404"/>
			<line class="st2" x1="0" y1="122.135" x2="256" y2="122.135"/>
			<line class="st2" x1="0" y1="133.865" x2="256" y2="133.865"/>
			<line class="st2" x1="0" y1="145.596" x2="256" y2="145.596"/>
			<line class="st2" x1="0" y1="157.326" x2="256" y2="157.326"/>
			<line class="st2" x1="0" y1="169.057" x2="256" y2="169.057"/>
			<line class="st2" x1="0" y1="180.788" x2="256" y2="180.788"/>
			<line class="st2" x1="0" y1="192.518" x2="256" y2="192.518"/>
			<line class="st2" x1="0" y1="204.249" x2="256" y2="204.249"/>
			<line class="st2" x1="0" y1="215.979" x2="256" y2="215.979"/>
			<line class="st2" x1="0" y1="227.71" x2="256" y2="227.71"/>
			<line class="st2" x1="0" y1="239.44" x2="256" y2="239.44"/>
			<line class="st2" x1="0" y1="251.171" x2="256" y2="251.171"/>
		</g>
		<g>
			<line class="st2" x1="251.171" y1="0" x2="251.171" y2="256"/>
			<line class="st2" x1="239.44" y1="0" x2="239.44" y2="256"/>
			<line class="st2" x1="227.71" y1="0" x2="227.71" y2="256"/>
			<line class="st2" x1="215.979" y1="0" x2="215.979" y2="256"/>
			<line class="st2" x1="204.249" y1="0" x2="204.249" y2="256"/>
			<line class="st2" x1="192.518" y1="0" x2="192.518" y2="256"/>
			<line class="st2" x1="180.787" y1="0" x2="180.787" y2="256"/>
			<line class="st2" x1="169.057" y1="0" x2="169.057" y2="256"/>
			<line class="st2" x1="157.326" y1="0" x2="157.326" y2="256"/>
			<line class="st2" x1="145.596" y1="0" x2="145.596" y2="256"/>
			<line class="st2" x1="133.865" y1="0" x2="133.865" y2="256"/>
			<line class="st2" x1="122.135" y1="0" x2="122.135" y2="256"/>
			<line class="st2" x1="110.404" y1="0" x2="110.404" y2="256"/>
			<line class="st2" x1="98.674" y1="0" x2="98.674" y2="256"/>
			<line class="st2" x1="86.943" y1="0" x2="86.943" y2="256"/>
			<line class="st2" x1="75.212" y1="0" x2="75.212" y2="256"/>
			<line class="st2" x1="63.482" y1="0" x2="63.482" y2="256"/>
			<line class="st2" x1="51.751" y1="0" x2="51.751" y2="256"/>
			<line class="st2" x1="40.021" y1="0" x2="40.021" y2="256"/>
			<line class="st2" x1="28.29" y1="0" x2="28.29" y2="256"/>
			<line class="st2" x1="16.56" y1="0" x2="16.56" y2="256"/>
			<line class="st2" x1="4.829" y1="0" x2="4.829" y2="256"/>
		</g>
	</g>
</g>
<g id="Layer_1">
	<g>
		<path class="st4" d="M16.5,124.243v58.774c0,9.447,7.658,17.105,17.105,17.105h188.789c9.447,0,17.106-7.658,17.106-17.105V52.728
			c0-9.447-7.658-17.105-17.106-17.105H33.605c-9.447,0-17.105,7.658-17.105,17.105v57.441V124.243z"/>
		<path class="st3" d="M222.394,201.622H33.605c-10.259,0-18.605-8.347-18.605-18.605v-58.774c0-0.828,0.671-1.5,1.5-1.5
			c0.829,0,1.5,0.672,1.5,1.5v58.774c0,8.604,7,15.605,15.605,15.605h188.789c8.605,0,15.606-7.001,15.606-15.605V52.728
			c0-8.604-7.001-15.605-15.606-15.605H33.605C25,37.122,18,44.123,18,52.728v57.441c0,0.828-0.671,1.5-1.5,1.5
			c-0.829,0-1.5-0.672-1.5-1.5V52.728c0-10.259,8.346-18.605,18.605-18.605h188.789c10.259,0,18.606,8.347,18.606,18.605v130.289
			C241,193.275,232.653,201.622,222.394,201.622z"/>
		<path class="st4" d="M247.75,200.117c0,11.19-9.07,20.26-20.25,20.26h-199c-5.59,0-10.65-2.27-14.32-5.93
			c-3.66-3.67-5.93-8.73-5.93-14.33H247.75z"/>
		<path class="st3" d="M227.5,221.878h-199c-5.799,0-11.261-2.262-15.379-6.368c-4.109-4.121-6.371-9.586-6.371-15.393
			c0-0.398,0.158-0.779,0.439-1.061c0.281-0.281,0.663-0.439,1.061-0.439h239.5c0.828,0,1.5,0.672,1.5,1.5
			C249.25,212.116,239.493,221.878,227.5,221.878z M9.809,201.617c0.35,4.442,2.248,8.576,5.434,11.77
			c3.549,3.54,8.258,5.49,13.258,5.49h199c9.834,0,17.924-7.615,18.69-17.261H9.809z"/>
		<path class="st14" d="M161.264,48.118H41.03c-6.58,0-11.92,5.34-11.92,11.92v115.67c0,6.58,5.34,11.91,11.92,11.91h173.94
			c6.58,0,11.92-5.33,11.92-11.91V60.038c0-6.58-5.34-11.92-11.92-11.92h-40.901H161.264z"/>
		<path class="st3" d="M214.97,189.117H41.03c-7.4,0-13.42-6.016-13.42-13.41V60.037c0-7.399,6.021-13.42,13.42-13.42h120.234
			c0.828,0,1.5,0.672,1.5,1.5c0,0.828-0.672,1.5-1.5,1.5H41.03c-5.746,0-10.42,4.675-10.42,10.42v115.67
			c0,5.74,4.675,10.41,10.42,10.41H214.97c5.745,0,10.42-4.67,10.42-10.41V60.037c0-5.745-4.675-10.42-10.42-10.42h-40.901
			c-0.828,0-1.5-0.672-1.5-1.5c0-0.828,0.672-1.5,1.5-1.5h40.901c7.399,0,13.42,6.021,13.42,13.42v115.67
			C228.39,183.102,222.369,189.117,214.97,189.117z"/>
		<path class="st4" d="M145.5,200.117v6.446c0,2.173-1.761,3.934-3.934,3.934h-25.133c-2.173,0-3.934-1.761-3.934-3.934v-6.446
			H145.5z"/>
		<path class="st3" d="M141.566,211.997h-25.133c-2.996,0-5.434-2.438-5.434-5.434v-6.446c0-0.828,0.671-1.5,1.5-1.5h33
			c0.828,0,1.5,0.672,1.5,1.5v6.446C147,209.56,144.562,211.997,141.566,211.997z M114,201.617v4.946
			c0,1.342,1.092,2.434,2.434,2.434h25.133c1.342,0,2.434-1.092,2.434-2.434v-4.946H114z"/>
		<path class="st17" d="M214.97,49.618h-15c5.74,0,10.42,4.68,10.42,10.42v115.67c0,5.74-4.68,10.41-10.42,10.41h15
			c5.74,0,10.42-4.67,10.42-10.41V60.037C225.39,54.298,220.71,49.618,214.97,49.618z"/>
		<path class="st7" d="M143,84.693c-14.534-6.02-30.865-6.02-45.4,0c0,20.279,0,40.557,0,60.836c14.535-6.02,30.865-6.02,45.4,0
			C143,125.25,143,104.972,143,84.693z"/>
		<path class="st3" d="M97.6,147.029c-0.292,0-0.583-0.086-0.833-0.253c-0.417-0.278-0.667-0.746-0.667-1.247V84.692
			c0-0.606,0.366-1.153,0.926-1.386c15.009-6.215,31.54-6.217,46.548,0c0.561,0.232,0.926,0.779,0.926,1.386v60.837
			c0,0.501-0.25,0.969-0.667,1.247c-0.417,0.277-0.946,0.328-1.407,0.139c-14.268-5.911-29.984-5.909-44.251,0
			C97.989,146.991,97.794,147.029,97.6,147.029z M99.1,85.704v57.623c13.753-5.127,28.646-5.129,42.4,0V85.704
			C127.79,80.294,112.811,80.295,99.1,85.704z"/>
		<path class="st7" d="M97.599,84.693c-14.534-6.02-30.865-6.02-45.4,0c0,20.279,0,40.557,0,60.836c14.535-6.02,30.865-6.02,45.4,0
			C97.599,125.25,97.599,104.972,97.599,84.693z"/>
		<path class="st3" d="M97.599,147.029c-0.194,0-0.389-0.038-0.574-0.114c-14.268-5.91-29.984-5.909-44.252,0
			c-0.465,0.191-0.991,0.139-1.408-0.139c-0.417-0.278-0.667-0.746-0.667-1.247V84.692c0-0.606,0.366-1.153,0.926-1.386
			c15.007-6.217,31.539-6.217,46.547,0c0.561,0.232,0.926,0.779,0.926,1.386v60.837c0,0.501-0.25,0.969-0.666,1.247
			C98.182,146.943,97.892,147.029,97.599,147.029z M53.699,85.704v57.623c13.753-5.129,28.645-5.129,42.4,0V85.704
			C82.388,80.293,67.408,80.293,53.699,85.704z"/>
		<path class="st3" d="M57.431,135.571c-0.641,0-1.234-0.413-1.433-1.058c-0.245-0.792,0.199-1.632,0.991-1.876
			c11.714-3.616,24.101-3.614,35.819,0c0.792,0.244,1.236,1.084,0.992,1.876c-0.245,0.792-1.085,1.235-1.876,0.991
			c-11.141-3.438-22.915-3.438-34.051,0C57.727,135.55,57.578,135.571,57.431,135.571z"/>
		<path class="st3" d="M103.072,135.492c-0.644,0-1.238-0.417-1.435-1.064c-0.241-0.792,0.207-1.63,0.999-1.871
			c11.522-3.5,23.708-3.509,35.242-0.022c0.793,0.239,1.242,1.076,1.002,1.869c-0.238,0.795-1.079,1.245-1.869,1.002
			c-10.965-3.312-22.55-3.306-33.502,0.022C103.363,135.472,103.216,135.492,103.072,135.492z"/>
		<path class="st3" d="M57.431,127.119c-0.641,0-1.234-0.413-1.433-1.058c-0.245-0.792,0.199-1.632,0.991-1.876
			c11.714-3.615,24.101-3.615,35.819,0c0.792,0.244,1.236,1.084,0.992,1.876c-0.245,0.792-1.085,1.234-1.876,0.991
			c-11.141-3.436-22.915-3.436-34.051,0C57.727,127.098,57.578,127.119,57.431,127.119z"/>
		<path class="st3" d="M103.072,127.04c-0.644,0-1.238-0.417-1.435-1.063c-0.241-0.793,0.207-1.631,0.999-1.872
			c11.522-3.5,23.708-3.509,35.242-0.022c0.793,0.239,1.242,1.076,1.002,1.869c-0.238,0.794-1.079,1.241-1.869,1.002
			c-10.965-3.312-22.55-3.306-33.502,0.022C103.363,127.02,103.216,127.04,103.072,127.04z"/>
		<path class="st3" d="M57.431,118.667c-0.641,0-1.234-0.413-1.433-1.058c-0.245-0.792,0.199-1.632,0.991-1.876
			c11.714-3.615,24.101-3.615,35.819,0c0.792,0.244,1.236,1.084,0.992,1.876c-0.245,0.792-1.085,1.232-1.876,0.991
			c-11.141-3.437-22.915-3.437-34.051,0C57.727,118.646,57.578,118.667,57.431,118.667z"/>
		<path class="st3" d="M103.072,118.588c-0.644,0-1.238-0.417-1.435-1.064c-0.241-0.792,0.207-1.63,0.999-1.871
			c11.522-3.5,23.708-3.509,35.242-0.022c0.793,0.239,1.242,1.076,1.002,1.869c-0.238,0.794-1.079,1.243-1.869,1.002
			c-10.965-3.312-22.55-3.306-33.502,0.022C103.363,118.567,103.216,118.588,103.072,118.588z"/>
		<path class="st3" d="M57.431,110.215c-0.641,0-1.234-0.413-1.433-1.058c-0.245-0.792,0.199-1.632,0.991-1.876
			c11.714-3.616,24.101-3.614,35.819,0c0.792,0.244,1.236,1.084,0.992,1.876c-0.245,0.793-1.085,1.236-1.876,0.991
			c-11.141-3.437-22.915-3.438-34.051,0C57.727,110.193,57.578,110.215,57.431,110.215z"/>
		<path class="st3" d="M103.072,110.136c-0.644,0-1.238-0.417-1.435-1.063c-0.241-0.793,0.207-1.631,0.999-1.872
			c11.522-3.5,23.708-3.509,35.242-0.023c0.793,0.239,1.242,1.076,1.002,1.869c-0.238,0.795-1.079,1.244-1.869,1.002
			c-10.965-3.312-22.55-3.306-33.502,0.022C103.363,110.115,103.216,110.136,103.072,110.136z"/>
		<path class="st3" d="M92.367,101.763c-0.147,0-0.295-0.021-0.442-0.066c-11.14-3.435-22.915-3.435-34.051,0
			c-0.792,0.243-1.631-0.199-1.876-0.991c-0.245-0.792,0.199-1.632,0.991-1.876c11.714-3.613,24.101-3.613,35.819,0
			c0.792,0.244,1.236,1.084,0.992,1.876C93.602,101.35,93.008,101.763,92.367,101.763z"/>
		<path class="st3" d="M103.072,101.684c-0.644,0-1.238-0.417-1.435-1.063c-0.241-0.793,0.207-1.631,0.999-1.872
			c11.52-3.5,23.707-3.509,35.242-0.022c0.793,0.239,1.242,1.076,1.002,1.869c-0.238,0.795-1.079,1.246-1.869,1.002
			c-10.967-3.312-22.551-3.306-33.502,0.022C103.363,101.663,103.216,101.684,103.072,101.684z"/>
		<path class="st3" d="M92.367,93.311c-0.147,0-0.295-0.021-0.442-0.066c-11.14-3.435-22.915-3.436-34.051,0
			c-0.792,0.241-1.631-0.199-1.876-0.991c-0.245-0.792,0.199-1.632,0.991-1.876c11.714-3.613,24.101-3.613,35.819,0
			c0.792,0.244,1.236,1.084,0.992,1.876C93.602,92.897,93.008,93.311,92.367,93.311z"/>
		<path class="st3" d="M103.072,93.232c-0.643,0-1.238-0.417-1.435-1.063c-0.241-0.793,0.206-1.631,0.999-1.872
			c11.52-3.5,23.707-3.509,35.242-0.022c0.793,0.239,1.242,1.076,1.002,1.869c-0.238,0.794-1.079,1.241-1.869,1.002
			c-10.967-3.312-22.551-3.306-33.502,0.022C103.363,93.212,103.216,93.232,103.072,93.232z"/>
		<path class="st4" d="M202.712,160.873c2.773,0,5.02-2.248,5.02-5.02v-5.49c0-2.772-2.248-5.02-5.02-5.02H53.288
			c-2.772,0-5.02,2.248-5.02,5.02v5.49c0,2.772,2.248,5.02,5.02,5.02H202.712z"/>
		<path class="st3" d="M202.712,162.373H53.288c-3.595,0-6.52-2.925-6.52-6.52v-5.49c0-3.595,2.925-6.52,6.52-6.52h149.424
			c3.596,0,6.52,2.925,6.52,6.52v5.49C209.232,159.448,206.308,162.373,202.712,162.373z M53.288,146.844
			c-1.941,0-3.52,1.579-3.52,3.52v5.49c0,1.94,1.579,3.52,3.52,3.52h149.424c1.941,0,3.52-1.579,3.52-3.52v-5.49
			c0-1.94-1.579-3.52-3.52-3.52H53.288z"/>
		<rect x="62.63" y="160.877" class="st4" width="14.37" height="26.74"/>
		<path class="st3" d="M77,189.117H62.63c-0.829,0-1.5-0.672-1.5-1.5v-26.74c0-0.828,0.671-1.5,1.5-1.5H77
			c0.829,0,1.5,0.672,1.5,1.5v26.74C78.5,188.445,77.829,189.117,77,189.117z M64.13,186.117H75.5v-23.74H64.13V186.117z"/>
		<rect x="179" y="160.877" class="st4" width="14.37" height="26.74"/>
		<path class="st3" d="M193.37,189.117H179c-0.828,0-1.5-0.672-1.5-1.5v-26.74c0-0.828,0.672-1.5,1.5-1.5h14.37
			c0.828,0,1.5,0.672,1.5,1.5v26.74C194.87,188.445,194.198,189.117,193.37,189.117z M180.5,186.117h11.37v-23.74H180.5V186.117z"/>
		<path class="st9" d="M140.601,144.966l-7.52-3.736c-1.569-0.78-2.209-2.684-1.429-4.253l28.924-58.211
			c0.78-1.569,2.684-2.209,4.253-1.43l7.52,3.737c1.569,0.78,2.209,2.684,1.429,4.253l-28.924,58.211
			C144.075,145.106,142.17,145.746,140.601,144.966z"/>
		<path class="st3" d="M142.005,146.796c-0.697,0-1.404-0.156-2.07-0.486l0,0l-7.521-3.736c-2.308-1.148-3.252-3.958-2.104-6.265
			l28.923-58.21c1.148-2.308,3.958-3.252,6.264-2.106l7.521,3.737c1.117,0.556,1.951,1.513,2.349,2.696
			c0.398,1.184,0.311,2.45-0.245,3.568l-28.923,58.209C145.382,145.845,143.725,146.796,142.005,146.796z M141.269,143.622
			c0.829,0.411,1.832,0.072,2.243-0.754l28.923-58.209c0.199-0.4,0.23-0.854,0.088-1.278c-0.142-0.423-0.44-0.766-0.84-0.964
			l-7.521-3.737c-0.825-0.414-1.83-0.071-2.242,0.754l-28.923,58.21c-0.411,0.826-0.073,1.832,0.753,2.243L141.269,143.622z"/>
		
			<rect x="152.293" y="89.733" transform="matrix(0.445 -0.8955 0.8955 0.445 1.6737 196.9078)" class="st8" width="14.805" height="14.742"/>
		<path class="st3" d="M163.002,108.513c-0.225,0-0.452-0.05-0.666-0.156l-13.203-6.56c-0.356-0.178-0.628-0.488-0.755-0.866
			c-0.127-0.377-0.099-0.789,0.078-1.146l6.589-13.259c0.369-0.742,1.271-1.045,2.011-0.676l13.202,6.56
			c0.357,0.178,0.628,0.488,0.755,0.866c0.127,0.377,0.099,0.789-0.078,1.145l-6.588,13.259
			C164.084,108.208,163.554,108.513,163.002,108.513z M151.81,99.777l10.517,5.225l5.253-10.572l-10.516-5.225L151.81,99.777z"/>
		<path class="st9" d="M197.628,145.344h-8.397c-1.752,0-3.173-1.42-3.173-3.173V77.17c0-1.752,1.42-3.173,3.173-3.173h8.397
			c1.752,0,3.173,1.42,3.173,3.173v65.001C200.801,143.923,199.38,145.344,197.628,145.344z"/>
		<path class="st3" d="M197.628,146.844h-8.396c-2.576,0-4.673-2.097-4.673-4.673V77.17c0-2.576,2.097-4.673,4.673-4.673h8.396
			c2.576,0,4.673,2.097,4.673,4.673v65.001C202.301,144.747,200.204,146.844,197.628,146.844z M189.231,75.497
			c-0.923,0-1.673,0.75-1.673,1.673v65.001c0,0.923,0.75,1.673,1.673,1.673h8.396c0.923,0,1.673-0.75,1.673-1.673V77.17
			c0-0.923-0.75-1.673-1.673-1.673H189.231z"/>
		<rect x="186.058" y="86.582" class="st8" width="14.742" height="14.805"/>
		<path class="st3" d="M200.801,102.887h-14.742c-0.828,0-1.5-0.672-1.5-1.5V86.582c0-0.828,0.672-1.5,1.5-1.5h14.742
			c0.828,0,1.5,0.672,1.5,1.5v14.805C202.301,102.215,201.629,102.887,200.801,102.887z M187.559,99.887h11.742V88.082h-11.742
			V99.887z"/>
		<path class="st7" d="M175.103,145.344h7.783c1.752,0,3.173-1.42,3.173-3.173V89.755c0-1.752-1.42-3.173-3.173-3.173h-7.783
			c-1.752,0-3.173,1.42-3.173,3.173v52.417C171.931,143.923,173.351,145.344,175.103,145.344z"/>
		<path class="st3" d="M182.886,146.844h-7.782c-2.576,0-4.673-2.097-4.673-4.673V89.755c0-2.576,2.097-4.673,4.673-4.673h7.782
			c2.576,0,4.673,2.097,4.673,4.673v52.416C187.559,144.747,185.462,146.844,182.886,146.844z M175.103,88.082
			c-0.923,0-1.673,0.75-1.673,1.673v52.416c0,0.923,0.75,1.673,1.673,1.673h7.782c0.923,0,1.673-0.75,1.673-1.673V89.755
			c0-0.923-0.75-1.673-1.673-1.673H175.103z"/>
		<rect x="171.931" y="96.947" class="st14" width="14.128" height="12.194"/>
		<path class="st3" d="M186.059,110.641h-14.128c-0.828,0-1.5-0.672-1.5-1.5V96.946c0-0.828,0.672-1.5,1.5-1.5h14.128
			c0.828,0,1.5,0.672,1.5,1.5v12.194C187.559,109.969,186.887,110.641,186.059,110.641z M173.431,107.641h11.128v-9.194h-11.128
			V107.641z"/>
	</g>
</g>
</svg>
